<?xml version="1.0" encoding="UTF-8"?>
<!DOCTYPE svg PUBLIC "-//W3C//DTD SVG 1.1//EN" "http://www.w3.org/Graphics/SVG/1.1/DTD/svg11.dtd">
<svg xmlns="http://www.w3.org/2000/svg" version="1.1" width="829px" height="715px" style="shape-rendering:geometricPrecision; text-rendering:geometricPrecision; image-rendering:optimizeQuality; fill-rule:evenodd; clip-rule:evenodd" xmlns:xlink="http://www.w3.org/1999/xlink">
<g><path style="opacity:0.997" fill="#fef9fd" d="M 452.5,714.5 C 427.833,714.5 403.167,714.5 378.5,714.5C 256.902,698.323 165.069,637.657 103,532.5C 51.6062,435.375 44.2729,335.042 81,231.5C 121.713,131.12 192.547,61.2866 293.5,22C 401.796,-14.3985 505.13,-3.73181 603.5,54C 712.452,125.688 769.119,227.188 773.5,358.5C 769.343,485.349 715.677,584.849 612.5,657C 563.671,688.776 510.337,707.942 452.5,714.5 Z"/></g>
<g><path style="opacity:1" fill="#03784b" d="M 298.5,148.5 C 306.288,147.313 312.788,149.647 318,155.5C 323.945,166.038 327.445,177.372 328.5,189.5C 361.883,183.992 395.217,178.158 428.5,172C 441.924,169.295 451.424,174.128 457,186.5C 461.491,210.122 465.658,233.789 469.5,257.5C 490.5,254.167 511.5,250.833 532.5,247.5C 544.735,248.236 552.235,254.569 555,266.5C 566.718,323.424 578.051,380.424 589,437.5C 590.353,438.704 592.019,439.371 594,439.5C 602.804,438.171 611.637,437.171 620.5,436.5C 622.418,450.848 624.418,465.181 626.5,479.5C 559.124,488.768 491.791,498.268 424.5,508C 419.497,539.005 401.831,558.671 371.5,567C 337.971,571.088 313.471,558.254 298,528.5C 287.109,497.941 293.609,471.775 317.5,450C 322,446.915 326.667,444.082 331.5,441.5C 331.833,440.167 332.167,438.833 332.5,437.5C 316.557,358.616 301.057,279.616 286,200.5C 285.439,199.978 284.772,199.645 284,199.5C 264.789,205.302 245.456,210.636 226,215.5C 213.5,213.667 206.333,206.5 204.5,194C 204.83,184.021 209.496,177.021 218.5,173C 245.37,165.096 272.037,156.929 298.5,148.5 Z"/></g>
<g><path style="opacity:1" fill="#fdf9fc" d="M 410.5,219.5 C 413.167,219.5 415.833,219.5 418.5,219.5C 421.18,235.193 423.847,250.86 426.5,266.5C 400.041,270.612 373.707,275.279 347.5,280.5C 343.532,264.663 340.199,248.663 337.5,232.5C 362.144,229.154 386.478,224.82 410.5,219.5 Z"/></g>
<g><path style="opacity:1" fill="#fef9fd" d="M 509.5,295.5 C 512.079,295.083 514.246,295.75 516,297.5C 525.778,347.221 535.611,396.888 545.5,446.5C 501.471,452.451 457.471,458.284 413.5,464C 404.478,451.803 392.811,443.303 378.5,438.5C 370.775,401.04 363.108,363.54 355.5,326C 355.833,325.167 356.167,324.333 356.5,323.5C 407.646,314.239 458.646,304.906 509.5,295.5 Z"/></g>
<g><path style="opacity:1" fill="#fdf9fc" d="M 354.5,479.5 C 373.852,479.683 382.352,489.35 380,508.5C 373.825,521.835 363.658,526.335 349.5,522C 337.312,514.24 334.145,503.74 340,490.5C 343.857,485.468 348.69,481.801 354.5,479.5 Z"/></g>
</svg>
